<?xml version="1.0" encoding="utf-8" standalone="no"?>
<!DOCTYPE svg PUBLIC "-//W3C//DTD SVG 1.1//EN"
  "http://www.w3.org/Graphics/SVG/1.1/DTD/svg11.dtd">
<svg xmlns:xlink="http://www.w3.org/1999/xlink" width="674.545682pt" height="432.451414pt" viewBox="0 0 674.545682 432.451414" xmlns="http://www.w3.org/2000/svg" version="1.1">
 <metadata>
  <rdf:RDF xmlns:dc="http://purl.org/dc/elements/1.1/" xmlns:cc="http://creativecommons.org/ns#" xmlns:rdf="http://www.w3.org/1999/02/22-rdf-syntax-ns#">
   <cc:Work>
    <dc:type rdf:resource="http://purl.org/dc/dcmitype/StillImage"/>
    <dc:date>2026-07-27T21:32:43.537155</dc:date>
    <dc:format>image/svg+xml</dc:format>
    <dc:creator>
     <cc:Agent>
      <dc:title>Matplotlib v3.11.1, https://matplotlib.org/</dc:title>
     </cc:Agent>
    </dc:creator>
   </cc:Work>
  </rdf:RDF>
 </metadata>
 <defs>
  <style type="text/css">*{stroke-linejoin: round; stroke-linecap: butt}</style>
 </defs>
 <g id="figure_1">
  <g id="patch_1">
   <path d="M 0 432.451414 
L 674.545682 432.451414 
L 674.545682 0 
L 0 0 
z
" style="fill: #ffffff"/>
  </g>
  <g id="axes_1">
   <g id="patch_2">
    <path d="M 41.198477 394.249578 
L 610.358477 394.249578 
L 610.358477 44.977578 
L 41.198477 44.977578 
z
" style="fill: #ffffff"/>
   </g>
   <g id="line2d_1">
    <path d="M 299.026411 394.249578 
L 299.026411 44.977578 
" clip-path="url(#p717c307524)" style="fill: none; stroke-dasharray: 1,2.5; stroke-dashoffset: 0; stroke: #999999"/>
   </g>
   <g id="matplotlib.axis_1">
    <g id="xtick_1">
     <g id="line2d_2"/>
     <g id="text_1">
      <!-- 1k -->
      <g style="fill: #1a1a1a" transform="translate(88.018388 406.107859) scale(0.11 -0.11)">
       <defs>
        <path id="DejaVuSans-14" d="M 794 531 
L 1825 531 
L 1825 4091 
L 703 3866 
L 703 4441 
L 1819 4666 
L 2450 4666 
L 2450 531 
L 3481 531 
L 3481 0 
L 794 0 
L 794 531 
z
" transform="scale(0.015625)"/>
        <path id="DejaVuSans-4e" d="M 581 4863 
L 1159 4863 
L 1159 1991 
L 2875 3500 
L 3609 3500 
L 1753 1863 
L 3688 0 
L 2938 0 
L 1159 1709 
L 1159 0 
L 581 0 
L 581 4863 
z
" transform="scale(0.015625)"/>
       </defs>
       <use xlink:href="#DejaVuSans-14"/>
       <use xlink:href="#DejaVuSans-4e" transform="translate(63.625 0)"/>
      </g>
     </g>
    </g>
    <g id="xtick_2">
     <g id="line2d_3"/>
     <g id="text_2">
      <!-- 2k -->
      <g style="fill: #1a1a1a" transform="translate(216.932356 406.107859) scale(0.11 -0.11)">
       <defs>
        <path id="DejaVuSans-15" d="M 1228 531 
L 3431 531 
L 3431 0 
L 469 0 
L 469 531 
Q 828 903 1448 1529 
Q 2069 2156 2228 2338 
Q 2531 2678 2651 2914 
Q 2772 3150 2772 3378 
Q 2772 3750 2511 3984 
Q 2250 4219 1831 4219 
Q 1534 4219 1204 4116 
Q 875 4013 500 3803 
L 500 4441 
Q 881 4594 1212 4672 
Q 1544 4750 1819 4750 
Q 2544 4750 2975 4387 
Q 3406 4025 3406 3419 
Q 3406 3131 3298 2873 
Q 3191 2616 2906 2266 
Q 2828 2175 2409 1742 
Q 1991 1309 1228 531 
z
" transform="scale(0.015625)"/>
       </defs>
       <use xlink:href="#DejaVuSans-15"/>
       <use xlink:href="#DejaVuSans-4e" transform="translate(63.625 0)"/>
      </g>
     </g>
    </g>
    <g id="xtick_3">
     <g id="line2d_4"/>
     <g id="text_3">
      <!-- 3k -->
      <g style="fill: #1a1a1a" transform="translate(292.342192 406.107859) scale(0.11 -0.11)">
       <defs>
        <path id="DejaVuSans-16" d="M 2597 2516 
Q 3050 2419 3304 2112 
Q 3559 1806 3559 1356 
Q 3559 666 3084 287 
Q 2609 -91 1734 -91 
Q 1441 -91 1130 -33 
Q 819 25 488 141 
L 488 750 
Q 750 597 1062 519 
Q 1375 441 1716 441 
Q 2309 441 2620 675 
Q 2931 909 2931 1356 
Q 2931 1769 2642 2001 
Q 2353 2234 1838 2234 
L 1294 2234 
L 1294 2753 
L 1863 2753 
Q 2328 2753 2575 2939 
Q 2822 3125 2822 3475 
Q 2822 3834 2567 4026 
Q 2313 4219 1838 4219 
Q 1578 4219 1281 4162 
Q 984 4106 628 3988 
L 628 4550 
Q 988 4650 1302 4700 
Q 1616 4750 1894 4750 
Q 2613 4750 3031 4423 
Q 3450 4097 3450 3541 
Q 3450 3153 3228 2886 
Q 3006 2619 2597 2516 
z
" transform="scale(0.015625)"/>
       </defs>
       <use xlink:href="#DejaVuSans-16"/>
       <use xlink:href="#DejaVuSans-4e" transform="translate(63.625 0)"/>
      </g>
     </g>
    </g>
    <g id="xtick_4">
     <g id="line2d_5"/>
     <g id="text_4">
      <!-- 5k -->
      <g style="fill: #1a1a1a" transform="translate(387.347351 406.107859) scale(0.11 -0.11)">
       <defs>
        <path id="DejaVuSans-18" d="M 691 4666 
L 3169 4666 
L 3169 4134 
L 1269 4134 
L 1269 2991 
Q 1406 3038 1543 3061 
Q 1681 3084 1819 3084 
Q 2600 3084 3056 2656 
Q 3513 2228 3513 1497 
Q 3513 744 3044 326 
Q 2575 -91 1722 -91 
Q 1428 -91 1123 -41 
Q 819 9 494 109 
L 494 744 
Q 775 591 1075 516 
Q 1375 441 1709 441 
Q 2250 441 2565 725 
Q 2881 1009 2881 1497 
Q 2881 1984 2565 2268 
Q 2250 2553 1709 2553 
Q 1456 2553 1204 2497 
Q 953 2441 691 2322 
L 691 4666 
z
" transform="scale(0.015625)"/>
       </defs>
       <use xlink:href="#DejaVuSans-18"/>
       <use xlink:href="#DejaVuSans-4e" transform="translate(63.625 0)"/>
      </g>
     </g>
    </g>
    <g id="xtick_5">
     <g id="line2d_6"/>
     <g id="text_5">
      <!-- 10k -->
      <g style="fill: #1a1a1a" transform="translate(512.761943 406.107859) scale(0.11 -0.11)">
       <defs>
        <path id="DejaVuSans-13" d="M 2034 4250 
Q 1547 4250 1301 3770 
Q 1056 3291 1056 2328 
Q 1056 1369 1301 889 
Q 1547 409 2034 409 
Q 2525 409 2770 889 
Q 3016 1369 3016 2328 
Q 3016 3291 2770 3770 
Q 2525 4250 2034 4250 
z
M 2034 4750 
Q 2819 4750 3233 4129 
Q 3647 3509 3647 2328 
Q 3647 1150 3233 529 
Q 2819 -91 2034 -91 
Q 1250 -91 836 529 
Q 422 1150 422 2328 
Q 422 3509 836 4129 
Q 1250 4750 2034 4750 
z
" transform="scale(0.015625)"/>
       </defs>
       <use xlink:href="#DejaVuSans-14"/>
       <use xlink:href="#DejaVuSans-13" transform="translate(63.625 0)"/>
       <use xlink:href="#DejaVuSans-4e" transform="translate(127.25 0)"/>
      </g>
     </g>
    </g>
    <g id="text_6">
     <!-- generated tokens / question (log) -->
     <g style="fill: #1a1a1a" transform="translate(221.303867 422.248484) scale(0.125 -0.125)">
      <defs>
       <path id="DejaVuSans-4a" d="M 2906 1791 
Q 2906 2416 2648 2759 
Q 2391 3103 1925 3103 
Q 1463 3103 1205 2759 
Q 947 2416 947 1791 
Q 947 1169 1205 825 
Q 1463 481 1925 481 
Q 2391 481 2648 825 
Q 2906 1169 2906 1791 
z
M 3481 434 
Q 3481 -459 3084 -895 
Q 2688 -1331 1869 -1331 
Q 1566 -1331 1297 -1286 
Q 1028 -1241 775 -1147 
L 775 -588 
Q 1028 -725 1275 -790 
Q 1522 -856 1778 -856 
Q 2344 -856 2625 -561 
Q 2906 -266 2906 331 
L 2906 616 
Q 2728 306 2450 153 
Q 2172 0 1784 0 
Q 1141 0 747 490 
Q 353 981 353 1791 
Q 353 2603 747 3093 
Q 1141 3584 1784 3584 
Q 2172 3584 2450 3431 
Q 2728 3278 2906 2969 
L 2906 3500 
L 3481 3500 
L 3481 434 
z
" transform="scale(0.015625)"/>
       <path id="DejaVuSans-48" d="M 3597 1894 
L 3597 1613 
L 953 1613 
Q 991 1019 1311 708 
Q 1631 397 2203 397 
Q 2534 397 2845 478 
Q 3156 559 3463 722 
L 3463 178 
Q 3153 47 2828 -22 
Q 2503 -91 2169 -91 
Q 1331 -91 842 396 
Q 353 884 353 1716 
Q 353 2575 817 3079 
Q 1281 3584 2069 3584 
Q 2775 3584 3186 3129 
Q 3597 2675 3597 1894 
z
M 3022 2063 
Q 3016 2534 2758 2815 
Q 2500 3097 2075 3097 
Q 1594 3097 1305 2825 
Q 1016 2553 972 2059 
L 3022 2063 
z
" transform="scale(0.015625)"/>
       <path id="DejaVuSans-51" d="M 3513 2113 
L 3513 0 
L 2938 0 
L 2938 2094 
Q 2938 2591 2744 2837 
Q 2550 3084 2163 3084 
Q 1697 3084 1428 2787 
Q 1159 2491 1159 1978 
L 1159 0 
L 581 0 
L 581 3500 
L 1159 3500 
L 1159 2956 
Q 1366 3272 1645 3428 
Q 1925 3584 2291 3584 
Q 2894 3584 3203 3211 
Q 3513 2838 3513 2113 
z
" transform="scale(0.015625)"/>
       <path id="DejaVuSans-55" d="M 2631 2963 
Q 2534 3019 2420 3045 
Q 2306 3072 2169 3072 
Q 1681 3072 1420 2755 
Q 1159 2438 1159 1844 
L 1159 0 
L 581 0 
L 581 3500 
L 1159 3500 
L 1159 2956 
Q 1341 3275 1631 3429 
Q 1922 3584 2338 3584 
Q 2397 3584 2469 3576 
Q 2541 3569 2628 3553 
L 2631 2963 
z
" transform="scale(0.015625)"/>
       <path id="DejaVuSans-44" d="M 2194 1759 
Q 1497 1759 1228 1600 
Q 959 1441 959 1056 
Q 959 750 1161 570 
Q 1363 391 1709 391 
Q 2188 391 2477 730 
Q 2766 1069 2766 1631 
L 2766 1759 
L 2194 1759 
z
M 3341 1997 
L 3341 0 
L 2766 0 
L 2766 531 
Q 2569 213 2275 61 
Q 1981 -91 1556 -91 
Q 1019 -91 701 211 
Q 384 513 384 1019 
Q 384 1609 779 1909 
Q 1175 2209 1959 2209 
L 2766 2209 
L 2766 2266 
Q 2766 2663 2505 2880 
Q 2244 3097 1772 3097 
Q 1472 3097 1187 3025 
Q 903 2953 641 2809 
L 641 3341 
Q 956 3463 1253 3523 
Q 1550 3584 1831 3584 
Q 2591 3584 2966 3190 
Q 3341 2797 3341 1997 
z
" transform="scale(0.015625)"/>
       <path id="DejaVuSans-57" d="M 1172 4494 
L 1172 3500 
L 2356 3500 
L 2356 3053 
L 1172 3053 
L 1172 1153 
Q 1172 725 1289 603 
Q 1406 481 1766 481 
L 2356 481 
L 2356 0 
L 1766 0 
Q 1100 0 847 248 
Q 594 497 594 1153 
L 594 3053 
L 172 3053 
L 172 3500 
L 594 3500 
L 594 4494 
L 1172 4494 
z
" transform="scale(0.015625)"/>
       <path id="DejaVuSans-47" d="M 2906 2969 
L 2906 4863 
L 3481 4863 
L 3481 0 
L 2906 0 
L 2906 525 
Q 2725 213 2448 61 
Q 2172 -91 1784 -91 
Q 1150 -91 751 415 
Q 353 922 353 1747 
Q 353 2572 751 3078 
Q 1150 3584 1784 3584 
Q 2172 3584 2448 3432 
Q 2725 3281 2906 2969 
z
M 947 1747 
Q 947 1113 1208 752 
Q 1469 391 1925 391 
Q 2381 391 2643 752 
Q 2906 1113 2906 1747 
Q 2906 2381 2643 2742 
Q 2381 3103 1925 3103 
Q 1469 3103 1208 2742 
Q 947 2381 947 1747 
z
" transform="scale(0.015625)"/>
       <path id="DejaVuSans-3" transform="scale(0.015625)"/>
       <path id="DejaVuSans-52" d="M 1959 3097 
Q 1497 3097 1228 2736 
Q 959 2375 959 1747 
Q 959 1119 1226 758 
Q 1494 397 1959 397 
Q 2419 397 2687 759 
Q 2956 1122 2956 1747 
Q 2956 2369 2687 2733 
Q 2419 3097 1959 3097 
z
M 1959 3584 
Q 2709 3584 3137 3096 
Q 3566 2609 3566 1747 
Q 3566 888 3137 398 
Q 2709 -91 1959 -91 
Q 1206 -91 779 398 
Q 353 888 353 1747 
Q 353 2609 779 3096 
Q 1206 3584 1959 3584 
z
" transform="scale(0.015625)"/>
       <path id="DejaVuSans-56" d="M 2834 3397 
L 2834 2853 
Q 2591 2978 2328 3040 
Q 2066 3103 1784 3103 
Q 1356 3103 1142 2972 
Q 928 2841 928 2578 
Q 928 2378 1081 2264 
Q 1234 2150 1697 2047 
L 1894 2003 
Q 2506 1872 2764 1633 
Q 3022 1394 3022 966 
Q 3022 478 2636 193 
Q 2250 -91 1575 -91 
Q 1294 -91 989 -36 
Q 684 19 347 128 
L 347 722 
Q 666 556 975 473 
Q 1284 391 1588 391 
Q 1994 391 2212 530 
Q 2431 669 2431 922 
Q 2431 1156 2273 1281 
Q 2116 1406 1581 1522 
L 1381 1569 
Q 847 1681 609 1914 
Q 372 2147 372 2553 
Q 372 3047 722 3315 
Q 1072 3584 1716 3584 
Q 2034 3584 2315 3537 
Q 2597 3491 2834 3397 
z
" transform="scale(0.015625)"/>
       <path id="DejaVuSans-12" d="M 1625 4666 
L 2156 4666 
L 531 -594 
L 0 -594 
L 1625 4666 
z
" transform="scale(0.015625)"/>
       <path id="DejaVuSans-54" d="M 947 1747 
Q 947 1113 1208 752 
Q 1469 391 1925 391 
Q 2381 391 2643 752 
Q 2906 1113 2906 1747 
Q 2906 2381 2643 2742 
Q 2381 3103 1925 3103 
Q 1469 3103 1208 2742 
Q 947 2381 947 1747 
z
M 2906 525 
Q 2725 213 2448 61 
Q 2172 -91 1784 -91 
Q 1150 -91 751 415 
Q 353 922 353 1747 
Q 353 2572 751 3078 
Q 1150 3584 1784 3584 
Q 2172 3584 2448 3432 
Q 2725 3281 2906 2969 
L 2906 3500 
L 3481 3500 
L 3481 -1331 
L 2906 -1331 
L 2906 525 
z
" transform="scale(0.015625)"/>
       <path id="DejaVuSans-58" d="M 544 1381 
L 544 3500 
L 1119 3500 
L 1119 1403 
Q 1119 906 1312 657 
Q 1506 409 1894 409 
Q 2359 409 2629 706 
Q 2900 1003 2900 1516 
L 2900 3500 
L 3475 3500 
L 3475 0 
L 2900 0 
L 2900 538 
Q 2691 219 2414 64 
Q 2138 -91 1772 -91 
Q 1169 -91 856 284 
Q 544 659 544 1381 
z
M 1991 3584 
L 1991 3584 
z
" transform="scale(0.015625)"/>
       <path id="DejaVuSans-4c" d="M 603 3500 
L 1178 3500 
L 1178 0 
L 603 0 
L 603 3500 
z
M 603 4863 
L 1178 4863 
L 1178 4134 
L 603 4134 
L 603 4863 
z
" transform="scale(0.015625)"/>
       <path id="DejaVuSans-b" d="M 1984 4856 
Q 1566 4138 1362 3434 
Q 1159 2731 1159 2009 
Q 1159 1288 1364 580 
Q 1569 -128 1984 -844 
L 1484 -844 
Q 1016 -109 783 600 
Q 550 1309 550 2009 
Q 550 2706 781 3412 
Q 1013 4119 1484 4856 
L 1984 4856 
z
" transform="scale(0.015625)"/>
       <path id="DejaVuSans-4f" d="M 603 4863 
L 1178 4863 
L 1178 0 
L 603 0 
L 603 4863 
z
" transform="scale(0.015625)"/>
       <path id="DejaVuSans-c" d="M 513 4856 
L 1013 4856 
Q 1481 4119 1714 3412 
Q 1947 2706 1947 2009 
Q 1947 1309 1714 600 
Q 1481 -109 1013 -844 
L 513 -844 
Q 928 -128 1133 580 
Q 1338 1288 1338 2009 
Q 1338 2731 1133 3434 
Q 928 4138 513 4856 
z
" transform="scale(0.015625)"/>
      </defs>
      <use xlink:href="#DejaVuSans-4a"/>
      <use xlink:href="#DejaVuSans-48" transform="translate(63.484375 0)"/>
      <use xlink:href="#DejaVuSans-51" transform="translate(125.015625 0)"/>
      <use xlink:href="#DejaVuSans-48" transform="translate(188.390625 0)"/>
      <use xlink:href="#DejaVuSans-55" transform="translate(249.921875 0)"/>
      <use xlink:href="#DejaVuSans-44" transform="translate(291.03125 0)"/>
      <use xlink:href="#DejaVuSans-57" transform="translate(352.3125 0)"/>
      <use xlink:href="#DejaVuSans-48" transform="translate(391.515625 0)"/>
      <use xlink:href="#DejaVuSans-47" transform="translate(453.046875 0)"/>
      <use xlink:href="#DejaVuSans-3" transform="translate(516.53125 0)"/>
      <use xlink:href="#DejaVuSans-57" transform="translate(548.3125 0)"/>
      <use xlink:href="#DejaVuSans-52" transform="translate(587.515625 0)"/>
      <use xlink:href="#DejaVuSans-4e" transform="translate(648.703125 0)"/>
      <use xlink:href="#DejaVuSans-48" transform="translate(703.046875 0)"/>
      <use xlink:href="#DejaVuSans-51" transform="translate(764.578125 0)"/>
      <use xlink:href="#DejaVuSans-56" transform="translate(827.953125 0)"/>
      <use xlink:href="#DejaVuSans-3" transform="translate(880.046875 0)"/>
      <use xlink:href="#DejaVuSans-12" transform="translate(911.828125 0)"/>
      <use xlink:href="#DejaVuSans-3" transform="translate(945.515625 0)"/>
      <use xlink:href="#DejaVuSans-54" transform="translate(977.296875 0)"/>
      <use xlink:href="#DejaVuSans-58" transform="translate(1040.78125 0)"/>
      <use xlink:href="#DejaVuSans-48" transform="translate(1104.15625 0)"/>
      <use xlink:href="#DejaVuSans-56" transform="translate(1165.6875 0)"/>
      <use xlink:href="#DejaVuSans-57" transform="translate(1217.78125 0)"/>
      <use xlink:href="#DejaVuSans-4c" transform="translate(1256.984375 0)"/>
      <use xlink:href="#DejaVuSans-52" transform="translate(1284.765625 0)"/>
      <use xlink:href="#DejaVuSans-51" transform="translate(1345.953125 0)"/>
      <use xlink:href="#DejaVuSans-3" transform="translate(1409.328125 0)"/>
      <use xlink:href="#DejaVuSans-b" transform="translate(1441.109375 0)"/>
      <use xlink:href="#DejaVuSans-4f" transform="translate(1480.125 0)"/>
      <use xlink:href="#DejaVuSans-52" transform="translate(1507.90625 0)"/>
      <use xlink:href="#DejaVuSans-4a" transform="translate(1569.09375 0)"/>
      <use xlink:href="#DejaVuSans-c" transform="translate(1632.578125 0)"/>
     </g>
    </g>
   </g>
   <g id="matplotlib.axis_2">
    <g id="ytick_1">
     <g id="line2d_7">
      <path d="M 41.198477 394.249578 
L 610.358477 394.249578 
" clip-path="url(#p717c307524)" style="fill: none; stroke: #e3e3e3; stroke-width: 0.9; stroke-linecap: square"/>
     </g>
     <g id="line2d_8"/>
     <g id="text_7">
      <!-- 0 -->
      <g style="fill: #1a1a1a" transform="translate(30.699727 398.428289) scale(0.11 -0.11)">
       <use xlink:href="#DejaVuSans-13"/>
      </g>
     </g>
    </g>
    <g id="ytick_2">
     <g id="line2d_9">
      <path d="M 41.198477 344.353578 
L 610.358477 344.353578 
" clip-path="url(#p717c307524)" style="fill: none; stroke: #e3e3e3; stroke-width: 0.9; stroke-linecap: square"/>
     </g>
     <g id="line2d_10"/>
     <g id="text_8">
      <!-- 10 -->
      <g style="fill: #1a1a1a" transform="translate(23.700977 348.532289) scale(0.11 -0.11)">
       <use xlink:href="#DejaVuSans-14"/>
       <use xlink:href="#DejaVuSans-13" transform="translate(63.625 0)"/>
      </g>
     </g>
    </g>
    <g id="ytick_3">
     <g id="line2d_11">
      <path d="M 41.198477 294.457578 
L 610.358477 294.457578 
" clip-path="url(#p717c307524)" style="fill: none; stroke: #e3e3e3; stroke-width: 0.9; stroke-linecap: square"/>
     </g>
     <g id="line2d_12"/>
     <g id="text_9">
      <!-- 20 -->
      <g style="fill: #1a1a1a" transform="translate(23.700977 298.636289) scale(0.11 -0.11)">
       <use xlink:href="#DejaVuSans-15"/>
       <use xlink:href="#DejaVuSans-13" transform="translate(63.625 0)"/>
      </g>
     </g>
    </g>
    <g id="ytick_4">
     <g id="line2d_13">
      <path d="M 41.198477 244.561578 
L 610.358477 244.561578 
" clip-path="url(#p717c307524)" style="fill: none; stroke: #e3e3e3; stroke-width: 0.9; stroke-linecap: square"/>
     </g>
     <g id="line2d_14"/>
     <g id="text_10">
      <!-- 30 -->
      <g style="fill: #1a1a1a" transform="translate(23.700977 248.740289) scale(0.11 -0.11)">
       <use xlink:href="#DejaVuSans-16"/>
       <use xlink:href="#DejaVuSans-13" transform="translate(63.625 0)"/>
      </g>
     </g>
    </g>
    <g id="ytick_5">
     <g id="line2d_15">
      <path d="M 41.198477 194.665578 
L 610.358477 194.665578 
" clip-path="url(#p717c307524)" style="fill: none; stroke: #e3e3e3; stroke-width: 0.9; stroke-linecap: square"/>
     </g>
     <g id="line2d_16"/>
     <g id="text_11">
      <!-- 40 -->
      <g style="fill: #1a1a1a" transform="translate(23.700977 198.844289) scale(0.11 -0.11)">
       <defs>
        <path id="DejaVuSans-17" d="M 2419 4116 
L 825 1625 
L 2419 1625 
L 2419 4116 
z
M 2253 4666 
L 3047 4666 
L 3047 1625 
L 3713 1625 
L 3713 1100 
L 3047 1100 
L 3047 0 
L 2419 0 
L 2419 1100 
L 313 1100 
L 313 1709 
L 2253 4666 
z
" transform="scale(0.015625)"/>
       </defs>
       <use xlink:href="#DejaVuSans-17"/>
       <use xlink:href="#DejaVuSans-13" transform="translate(63.625 0)"/>
      </g>
     </g>
    </g>
    <g id="ytick_6">
     <g id="line2d_17">
      <path d="M 41.198477 144.769578 
L 610.358477 144.769578 
" clip-path="url(#p717c307524)" style="fill: none; stroke: #e3e3e3; stroke-width: 0.9; stroke-linecap: square"/>
     </g>
     <g id="line2d_18"/>
     <g id="text_12">
      <!-- 50 -->
      <g style="fill: #1a1a1a" transform="translate(23.700977 148.948289) scale(0.11 -0.11)">
       <use xlink:href="#DejaVuSans-18"/>
       <use xlink:href="#DejaVuSans-13" transform="translate(63.625 0)"/>
      </g>
     </g>
    </g>
    <g id="ytick_7">
     <g id="line2d_19">
      <path d="M 41.198477 94.873578 
L 610.358477 94.873578 
" clip-path="url(#p717c307524)" style="fill: none; stroke: #e3e3e3; stroke-width: 0.9; stroke-linecap: square"/>
     </g>
     <g id="line2d_20"/>
     <g id="text_13">
      <!-- 60 -->
      <g style="fill: #1a1a1a" transform="translate(23.700977 99.052289) scale(0.11 -0.11)">
       <defs>
        <path id="DejaVuSans-19" d="M 2113 2584 
Q 1688 2584 1439 2293 
Q 1191 2003 1191 1497 
Q 1191 994 1439 701 
Q 1688 409 2113 409 
Q 2538 409 2786 701 
Q 3034 994 3034 1497 
Q 3034 2003 2786 2293 
Q 2538 2584 2113 2584 
z
M 3366 4563 
L 3366 3988 
Q 3128 4100 2886 4159 
Q 2644 4219 2406 4219 
Q 1781 4219 1451 3797 
Q 1122 3375 1075 2522 
Q 1259 2794 1537 2939 
Q 1816 3084 2150 3084 
Q 2853 3084 3261 2657 
Q 3669 2231 3669 1497 
Q 3669 778 3244 343 
Q 2819 -91 2113 -91 
Q 1303 -91 875 529 
Q 447 1150 447 2328 
Q 447 3434 972 4092 
Q 1497 4750 2381 4750 
Q 2619 4750 2861 4703 
Q 3103 4656 3366 4563 
z
" transform="scale(0.015625)"/>
       </defs>
       <use xlink:href="#DejaVuSans-19"/>
       <use xlink:href="#DejaVuSans-13" transform="translate(63.625 0)"/>
      </g>
     </g>
    </g>
    <g id="text_14">
     <!-- lenient score (%) -->
     <g style="fill: #1a1a1a" transform="translate(16.698047 272.731742) rotate(-90) scale(0.125 -0.125)">
      <defs>
       <path id="DejaVuSans-46" d="M 3122 3366 
L 3122 2828 
Q 2878 2963 2633 3030 
Q 2388 3097 2138 3097 
Q 1578 3097 1268 2742 
Q 959 2388 959 1747 
Q 959 1106 1268 751 
Q 1578 397 2138 397 
Q 2388 397 2633 464 
Q 2878 531 3122 666 
L 3122 134 
Q 2881 22 2623 -34 
Q 2366 -91 2075 -91 
Q 1284 -91 818 406 
Q 353 903 353 1747 
Q 353 2603 823 3093 
Q 1294 3584 2113 3584 
Q 2378 3584 2631 3529 
Q 2884 3475 3122 3366 
z
" transform="scale(0.015625)"/>
       <path id="DejaVuSans-8" d="M 4653 2053 
Q 4381 2053 4226 1822 
Q 4072 1591 4072 1178 
Q 4072 772 4226 539 
Q 4381 306 4653 306 
Q 4919 306 5073 539 
Q 5228 772 5228 1178 
Q 5228 1588 5073 1820 
Q 4919 2053 4653 2053 
z
M 4653 2450 
Q 5147 2450 5437 2106 
Q 5728 1763 5728 1178 
Q 5728 594 5436 251 
Q 5144 -91 4653 -91 
Q 4153 -91 3862 251 
Q 3572 594 3572 1178 
Q 3572 1766 3864 2108 
Q 4156 2450 4653 2450 
z
M 1428 4353 
Q 1159 4353 1004 4120 
Q 850 3888 850 3481 
Q 850 3069 1003 2837 
Q 1156 2606 1428 2606 
Q 1700 2606 1854 2837 
Q 2009 3069 2009 3481 
Q 2009 3884 1853 4118 
Q 1697 4353 1428 4353 
z
M 4250 4750 
L 4750 4750 
L 1831 -91 
L 1331 -91 
L 4250 4750 
z
M 1428 4750 
Q 1922 4750 2215 4408 
Q 2509 4066 2509 3481 
Q 2509 2891 2217 2550 
Q 1925 2209 1428 2209 
Q 931 2209 642 2551 
Q 353 2894 353 3481 
Q 353 4063 643 4406 
Q 934 4750 1428 4750 
z
" transform="scale(0.015625)"/>
      </defs>
      <use xlink:href="#DejaVuSans-4f"/>
      <use xlink:href="#DejaVuSans-48" transform="translate(27.78125 0)"/>
      <use xlink:href="#DejaVuSans-51" transform="translate(89.3125 0)"/>
      <use xlink:href="#DejaVuSans-4c" transform="translate(152.6875 0)"/>
      <use xlink:href="#DejaVuSans-48" transform="translate(180.46875 0)"/>
      <use xlink:href="#DejaVuSans-51" transform="translate(242 0)"/>
      <use xlink:href="#DejaVuSans-57" transform="translate(305.375 0)"/>
      <use xlink:href="#DejaVuSans-3" transform="translate(344.578125 0)"/>
      <use xlink:href="#DejaVuSans-56" transform="translate(376.359375 0)"/>
      <use xlink:href="#DejaVuSans-46" transform="translate(428.453125 0)"/>
      <use xlink:href="#DejaVuSans-52" transform="translate(483.4375 0)"/>
      <use xlink:href="#DejaVuSans-55" transform="translate(544.625 0)"/>
      <use xlink:href="#DejaVuSans-48" transform="translate(583.53125 0)"/>
      <use xlink:href="#DejaVuSans-3" transform="translate(645.0625 0)"/>
      <use xlink:href="#DejaVuSans-b" transform="translate(676.84375 0)"/>
      <use xlink:href="#DejaVuSans-8" transform="translate(715.859375 0)"/>
      <use xlink:href="#DejaVuSans-c" transform="translate(810.875 0)"/>
     </g>
    </g>
   </g>
   <g id="patch_3">
    <path d="M 41.198477 394.249578 
L 41.198477 44.977578 
" style="fill: none; stroke: #cccccc; stroke-width: 0.8; stroke-linejoin: miter; stroke-linecap: square"/>
   </g>
   <g id="patch_4">
    <path d="M 41.198477 394.249578 
L 610.358477 394.249578 
" style="fill: none; stroke: #cccccc; stroke-width: 0.8; stroke-linejoin: miter; stroke-linecap: square"/>
   </g>
   <g id="line2d_21">
    <path d="M 100.470711 304.769418 
L 214.148635 144.436938 
L 229.399703 127.638618 
L 348.345677 113.002458 
" clip-path="url(#p717c307524)" style="fill: none; stroke-dasharray: 10.5,5.25; stroke-dashoffset: 0; stroke: #7a7a7a; stroke-width: 2.1"/>
    <defs>
     <path id="mf7c267c037" d="M 0 3 
C 0.795609 3 1.55874 2.683901 2.12132 2.12132 
C 2.683901 1.55874 3 0.795609 3 0 
C 3 -0.795609 2.683901 -1.55874 2.12132 -2.12132 
C 1.55874 -2.683901 0.795609 -3 0 -3 
C -0.795609 -3 -1.55874 -2.683901 -2.12132 -2.12132 
C -2.683901 -1.55874 -3 -0.795609 -3 0 
C -3 0.795609 -2.683901 1.55874 -2.12132 2.12132 
C -1.55874 2.683901 -0.795609 3 0 3 
z
" style="stroke: #7a7a7a"/>
    </defs>
    <g clip-path="url(#p717c307524)">
     <use xlink:href="#mf7c267c037" x="100.470711" y="304.769418" style="fill: #7a7a7a; stroke: #7a7a7a"/>
     <use xlink:href="#mf7c267c037" x="214.148635" y="144.436938" style="fill: #7a7a7a; stroke: #7a7a7a"/>
     <use xlink:href="#mf7c267c037" x="229.399703" y="127.638618" style="fill: #7a7a7a; stroke: #7a7a7a"/>
     <use xlink:href="#mf7c267c037" x="348.345677" y="113.002458" style="fill: #7a7a7a; stroke: #7a7a7a"/>
    </g>
   </g>
   <g id="text_15">
    <!-- no-study · E 55.7 -->
    <g style="fill: #7a7a7a" transform="translate(365.980995 110.335332) scale(0.115 -0.115)">
     <defs>
      <path id="DejaVuSans-10" d="M 313 2009 
L 1997 2009 
L 1997 1497 
L 313 1497 
L 313 2009 
z
" transform="scale(0.015625)"/>
      <path id="DejaVuSans-5c" d="M 2059 -325 
Q 1816 -950 1584 -1140 
Q 1353 -1331 966 -1331 
L 506 -1331 
L 506 -850 
L 844 -850 
Q 1081 -850 1212 -737 
Q 1344 -625 1503 -206 
L 1606 56 
L 191 3500 
L 800 3500 
L 1894 763 
L 2988 3500 
L 3597 3500 
L 2059 -325 
z
" transform="scale(0.015625)"/>
      <path id="DejaVuSans-79" d="M 684 2619 
L 1344 2619 
L 1344 1825 
L 684 1825 
L 684 2619 
z
" transform="scale(0.015625)"/>
      <path id="DejaVuSans-28" d="M 628 4666 
L 3578 4666 
L 3578 4134 
L 1259 4134 
L 1259 2753 
L 3481 2753 
L 3481 2222 
L 1259 2222 
L 1259 531 
L 3634 531 
L 3634 0 
L 628 0 
L 628 4666 
z
" transform="scale(0.015625)"/>
      <path id="DejaVuSans-11" d="M 684 794 
L 1344 794 
L 1344 0 
L 684 0 
L 684 794 
z
" transform="scale(0.015625)"/>
      <path id="DejaVuSans-1a" d="M 525 4666 
L 3525 4666 
L 3525 4397 
L 1831 0 
L 1172 0 
L 2766 4134 
L 525 4134 
L 525 4666 
z
" transform="scale(0.015625)"/>
     </defs>
     <use xlink:href="#DejaVuSans-51"/>
     <use xlink:href="#DejaVuSans-52" transform="translate(63.375 0)"/>
     <use xlink:href="#DejaVuSans-10" transform="translate(126.421875 0)"/>
     <use xlink:href="#DejaVuSans-56" transform="translate(162.5 0)"/>
     <use xlink:href="#DejaVuSans-57" transform="translate(214.59375 0)"/>
     <use xlink:href="#DejaVuSans-58" transform="translate(253.796875 0)"/>
     <use xlink:href="#DejaVuSans-47" transform="translate(317.171875 0)"/>
     <use xlink:href="#DejaVuSans-5c" transform="translate(380.65625 0)"/>
     <use xlink:href="#DejaVuSans-3" transform="translate(439.84375 0)"/>
     <use xlink:href="#DejaVuSans-79" transform="translate(471.625 0)"/>
     <use xlink:href="#DejaVuSans-3" transform="translate(503.40625 0)"/>
     <use xlink:href="#DejaVuSans-28" transform="translate(535.1875 0)"/>
     <use xlink:href="#DejaVuSans-3" transform="translate(598.375 0)"/>
     <use xlink:href="#DejaVuSans-18" transform="translate(630.15625 0)"/>
     <use xlink:href="#DejaVuSans-18" transform="translate(693.78125 0)"/>
     <use xlink:href="#DejaVuSans-11" transform="translate(757.40625 0)"/>
     <use xlink:href="#DejaVuSans-1a" transform="translate(789.1875 0)"/>
    </g>
   </g>
   <g id="line2d_22">
    <path d="M 67.323627 240.625338 
L 195.138997 155.691258 
L 197.085608 165.393258 
L 347.158861 111.782778 
" clip-path="url(#p717c307524)" style="fill: none; stroke: #12a370; stroke-width: 2.6; stroke-linecap: square"/>
    <defs>
     <path id="mbe42ac9202" d="M 0 3 
C 0.795609 3 1.55874 2.683901 2.12132 2.12132 
C 2.683901 1.55874 3 0.795609 3 0 
C 3 -0.795609 2.683901 -1.55874 2.12132 -2.12132 
C 1.55874 -2.683901 0.795609 -3 0 -3 
C -0.795609 -3 -1.55874 -2.683901 -2.12132 -2.12132 
C -2.683901 -1.55874 -3 -0.795609 -3 0 
C -3 0.795609 -2.683901 1.55874 -2.12132 2.12132 
C -1.55874 2.683901 -0.795609 3 0 3 
z
" style="stroke: #12a370"/>
    </defs>
    <g clip-path="url(#p717c307524)">
     <use xlink:href="#mbe42ac9202" x="67.323627" y="240.625338" style="fill: #12a370; stroke: #12a370"/>
     <use xlink:href="#mbe42ac9202" x="195.138997" y="155.691258" style="fill: #12a370; stroke: #12a370"/>
     <use xlink:href="#mbe42ac9202" x="197.085608" y="165.393258" style="fill: #12a370; stroke: #12a370"/>
     <use xlink:href="#mbe42ac9202" x="347.158861" y="111.782778" style="fill: #12a370; stroke: #12a370"/>
    </g>
   </g>
   <g id="text_16">
    <!-- + knowledge-only note (3 rollouts) · E 54.6 -->
    <g style="fill: #12a370" transform="translate(365.980995 87.882132) scale(0.115 -0.115)">
     <defs>
      <path id="DejaVuSans-e" d="M 2944 4013 
L 2944 2272 
L 4684 2272 
L 4684 1741 
L 2944 1741 
L 2944 0 
L 2419 0 
L 2419 1741 
L 678 1741 
L 678 2272 
L 2419 2272 
L 2419 4013 
L 2944 4013 
z
" transform="scale(0.015625)"/>
      <path id="DejaVuSans-5a" d="M 269 3500 
L 844 3500 
L 1563 769 
L 2278 3500 
L 2956 3500 
L 3675 769 
L 4391 3500 
L 4966 3500 
L 4050 0 
L 3372 0 
L 2619 2869 
L 1863 0 
L 1184 0 
L 269 3500 
z
" transform="scale(0.015625)"/>
     </defs>
     <use xlink:href="#DejaVuSans-e"/>
     <use xlink:href="#DejaVuSans-3" transform="translate(83.796875 0)"/>
     <use xlink:href="#DejaVuSans-4e" transform="translate(115.578125 0)"/>
     <use xlink:href="#DejaVuSans-51" transform="translate(173.484375 0)"/>
     <use xlink:href="#DejaVuSans-52" transform="translate(236.859375 0)"/>
     <use xlink:href="#DejaVuSans-5a" transform="translate(298.046875 0)"/>
     <use xlink:href="#DejaVuSans-4f" transform="translate(379.828125 0)"/>
     <use xlink:href="#DejaVuSans-48" transform="translate(407.609375 0)"/>
     <use xlink:href="#DejaVuSans-47" transform="translate(469.140625 0)"/>
     <use xlink:href="#DejaVuSans-4a" transform="translate(532.625 0)"/>
     <use xlink:href="#DejaVuSans-48" transform="translate(596.109375 0)"/>
     <use xlink:href="#DejaVuSans-10" transform="translate(657.640625 0)"/>
     <use xlink:href="#DejaVuSans-52" transform="translate(695.578125 0)"/>
     <use xlink:href="#DejaVuSans-51" transform="translate(756.765625 0)"/>
     <use xlink:href="#DejaVuSans-4f" transform="translate(820.140625 0)"/>
     <use xlink:href="#DejaVuSans-5c" transform="translate(847.921875 0)"/>
     <use xlink:href="#DejaVuSans-3" transform="translate(907.109375 0)"/>
     <use xlink:href="#DejaVuSans-51" transform="translate(938.890625 0)"/>
     <use xlink:href="#DejaVuSans-52" transform="translate(1002.265625 0)"/>
     <use xlink:href="#DejaVuSans-57" transform="translate(1063.453125 0)"/>
     <use xlink:href="#DejaVuSans-48" transform="translate(1102.65625 0)"/>
     <use xlink:href="#DejaVuSans-3" transform="translate(1164.1875 0)"/>
     <use xlink:href="#DejaVuSans-b" transform="translate(1195.96875 0)"/>
     <use xlink:href="#DejaVuSans-16" transform="translate(1234.984375 0)"/>
     <use xlink:href="#DejaVuSans-3" transform="translate(1298.609375 0)"/>
     <use xlink:href="#DejaVuSans-55" transform="translate(1330.390625 0)"/>
     <use xlink:href="#DejaVuSans-52" transform="translate(1369.296875 0)"/>
     <use xlink:href="#DejaVuSans-4f" transform="translate(1430.484375 0)"/>
     <use xlink:href="#DejaVuSans-4f" transform="translate(1458.265625 0)"/>
     <use xlink:href="#DejaVuSans-52" transform="translate(1486.046875 0)"/>
     <use xlink:href="#DejaVuSans-58" transform="translate(1547.234375 0)"/>
     <use xlink:href="#DejaVuSans-57" transform="translate(1610.609375 0)"/>
     <use xlink:href="#DejaVuSans-56" transform="translate(1649.8125 0)"/>
     <use xlink:href="#DejaVuSans-c" transform="translate(1701.90625 0)"/>
     <use xlink:href="#DejaVuSans-3" transform="translate(1740.921875 0)"/>
     <use xlink:href="#DejaVuSans-79" transform="translate(1772.703125 0)"/>
     <use xlink:href="#DejaVuSans-3" transform="translate(1804.484375 0)"/>
     <use xlink:href="#DejaVuSans-28" transform="translate(1836.265625 0)"/>
     <use xlink:href="#DejaVuSans-3" transform="translate(1899.453125 0)"/>
     <use xlink:href="#DejaVuSans-18" transform="translate(1931.234375 0)"/>
     <use xlink:href="#DejaVuSans-17" transform="translate(1994.859375 0)"/>
     <use xlink:href="#DejaVuSans-11" transform="translate(2058.484375 0)"/>
     <use xlink:href="#DejaVuSans-19" transform="translate(2090.265625 0)"/>
    </g>
   </g>
   <g id="line2d_23">
    <path d="M 71.441267 287.638458 
L 194.249373 154.083498 
L 212.438234 161.900538 
L 336.094071 141.443178 
" clip-path="url(#p717c307524)" style="fill: none; stroke: #e2571f; stroke-width: 2.6; stroke-linecap: square"/>
    <defs>
     <path id="md94f571083" d="M 0 3 
C 0.795609 3 1.55874 2.683901 2.12132 2.12132 
C 2.683901 1.55874 3 0.795609 3 0 
C 3 -0.795609 2.683901 -1.55874 2.12132 -2.12132 
C 1.55874 -2.683901 0.795609 -3 0 -3 
C -0.795609 -3 -1.55874 -2.683901 -2.12132 -2.12132 
C -2.683901 -1.55874 -3 -0.795609 -3 0 
C -3 0.795609 -2.683901 1.55874 -2.12132 2.12132 
C -1.55874 2.683901 -0.795609 3 0 3 
z
" style="stroke: #e2571f"/>
    </defs>
    <g clip-path="url(#p717c307524)">
     <use xlink:href="#md94f571083" x="71.441267" y="287.638458" style="fill: #e2571f; stroke: #e2571f"/>
     <use xlink:href="#md94f571083" x="194.249373" y="154.083498" style="fill: #e2571f; stroke: #e2571f"/>
     <use xlink:href="#md94f571083" x="212.438234" y="161.900538" style="fill: #e2571f; stroke: #e2571f"/>
     <use xlink:href="#md94f571083" x="336.094071" y="141.443178" style="fill: #e2571f; stroke: #e2571f"/>
    </g>
   </g>
   <g id="text_17">
    <!-- + own cheatsheet · E 50.2 -->
    <g style="fill: #e2571f" transform="translate(365.980995 147.757332) scale(0.115 -0.115)">
     <defs>
      <path id="DejaVuSans-4b" d="M 3513 2113 
L 3513 0 
L 2938 0 
L 2938 2094 
Q 2938 2591 2744 2837 
Q 2550 3084 2163 3084 
Q 1697 3084 1428 2787 
Q 1159 2491 1159 1978 
L 1159 0 
L 581 0 
L 581 4863 
L 1159 4863 
L 1159 2956 
Q 1366 3272 1645 3428 
Q 1925 3584 2291 3584 
Q 2894 3584 3203 3211 
Q 3513 2838 3513 2113 
z
" transform="scale(0.015625)"/>
     </defs>
     <use xlink:href="#DejaVuSans-e"/>
     <use xlink:href="#DejaVuSans-3" transform="translate(83.796875 0)"/>
     <use xlink:href="#DejaVuSans-52" transform="translate(115.578125 0)"/>
     <use xlink:href="#DejaVuSans-5a" transform="translate(176.765625 0)"/>
     <use xlink:href="#DejaVuSans-51" transform="translate(258.546875 0)"/>
     <use xlink:href="#DejaVuSans-3" transform="translate(321.921875 0)"/>
     <use xlink:href="#DejaVuSans-46" transform="translate(353.703125 0)"/>
     <use xlink:href="#DejaVuSans-4b" transform="translate(408.6875 0)"/>
     <use xlink:href="#DejaVuSans-48" transform="translate(472.0625 0)"/>
     <use xlink:href="#DejaVuSans-44" transform="translate(533.59375 0)"/>
     <use xlink:href="#DejaVuSans-57" transform="translate(594.875 0)"/>
     <use xlink:href="#DejaVuSans-56" transform="translate(634.078125 0)"/>
     <use xlink:href="#DejaVuSans-4b" transform="translate(686.171875 0)"/>
     <use xlink:href="#DejaVuSans-48" transform="translate(749.546875 0)"/>
     <use xlink:href="#DejaVuSans-48" transform="translate(811.078125 0)"/>
     <use xlink:href="#DejaVuSans-57" transform="translate(872.609375 0)"/>
     <use xlink:href="#DejaVuSans-3" transform="translate(911.8125 0)"/>
     <use xlink:href="#DejaVuSans-79" transform="translate(943.59375 0)"/>
     <use xlink:href="#DejaVuSans-3" transform="translate(975.375 0)"/>
     <use xlink:href="#DejaVuSans-28" transform="translate(1007.15625 0)"/>
     <use xlink:href="#DejaVuSans-3" transform="translate(1070.34375 0)"/>
     <use xlink:href="#DejaVuSans-18" transform="translate(1102.125 0)"/>
     <use xlink:href="#DejaVuSans-13" transform="translate(1165.75 0)"/>
     <use xlink:href="#DejaVuSans-11" transform="translate(1229.375 0)"/>
     <use xlink:href="#DejaVuSans-15" transform="translate(1261.15625 0)"/>
    </g>
   </g>
   <g id="line2d_24">
    <path d="M 66.074443 209.800698 
L 158.071865 228.927498 
L 167.745791 183.023178 
L 344.20716 176.370378 
" clip-path="url(#p717c307524)" style="fill: none; stroke-dasharray: 12.6,4.2,3.15,4.2; stroke-dashoffset: 0; stroke: #472f8f; stroke-width: 2.1"/>
    <defs>
     <path id="m2093017561" d="M 0 3 
C 0.795609 3 1.55874 2.683901 2.12132 2.12132 
C 2.683901 1.55874 3 0.795609 3 0 
C 3 -0.795609 2.683901 -1.55874 2.12132 -2.12132 
C 1.55874 -2.683901 0.795609 -3 0 -3 
C -0.795609 -3 -1.55874 -2.683901 -2.12132 -2.12132 
C -2.683901 -1.55874 -3 -0.795609 -3 0 
C -3 0.795609 -2.683901 1.55874 -2.12132 2.12132 
C -1.55874 2.683901 -0.795609 3 0 3 
z
" style="stroke: #472f8f"/>
    </defs>
    <g clip-path="url(#p717c307524)">
     <use xlink:href="#m2093017561" x="66.074443" y="209.800698" style="fill: #472f8f; stroke: #472f8f"/>
     <use xlink:href="#m2093017561" x="158.071865" y="228.927498" style="fill: #472f8f; stroke: #472f8f"/>
     <use xlink:href="#m2093017561" x="167.745791" y="183.023178" style="fill: #472f8f; stroke: #472f8f"/>
     <use xlink:href="#m2093017561" x="344.20716" y="176.370378" style="fill: #472f8f; stroke: #472f8f"/>
    </g>
   </g>
   <g id="text_18">
    <!-- + fold-back object (note + protocol + store) · E 43.4 -->
    <g style="fill: #472f8f" transform="translate(365.980995 182.684532) scale(0.115 -0.115)">
     <defs>
      <path id="DejaVuSans-49" d="M 2375 4863 
L 2375 4384 
L 1825 4384 
Q 1516 4384 1395 4259 
Q 1275 4134 1275 3809 
L 1275 3500 
L 2222 3500 
L 2222 3053 
L 1275 3053 
L 1275 0 
L 697 0 
L 697 3053 
L 147 3053 
L 147 3500 
L 697 3500 
L 697 3744 
Q 697 4328 969 4595 
Q 1241 4863 1831 4863 
L 2375 4863 
z
" transform="scale(0.015625)"/>
      <path id="DejaVuSans-45" d="M 3116 1747 
Q 3116 2381 2855 2742 
Q 2594 3103 2138 3103 
Q 1681 3103 1420 2742 
Q 1159 2381 1159 1747 
Q 1159 1113 1420 752 
Q 1681 391 2138 391 
Q 2594 391 2855 752 
Q 3116 1113 3116 1747 
z
M 1159 2969 
Q 1341 3281 1617 3432 
Q 1894 3584 2278 3584 
Q 2916 3584 3314 3078 
Q 3713 2572 3713 1747 
Q 3713 922 3314 415 
Q 2916 -91 2278 -91 
Q 1894 -91 1617 61 
Q 1341 213 1159 525 
L 1159 0 
L 581 0 
L 581 4863 
L 1159 4863 
L 1159 2969 
z
" transform="scale(0.015625)"/>
      <path id="DejaVuSans-4d" d="M 603 3500 
L 1178 3500 
L 1178 -63 
Q 1178 -731 923 -1031 
Q 669 -1331 103 -1331 
L -116 -1331 
L -116 -844 
L 38 -844 
Q 366 -844 484 -692 
Q 603 -541 603 -63 
L 603 3500 
z
M 603 4863 
L 1178 4863 
L 1178 4134 
L 603 4134 
L 603 4863 
z
" transform="scale(0.015625)"/>
      <path id="DejaVuSans-53" d="M 1159 525 
L 1159 -1331 
L 581 -1331 
L 581 3500 
L 1159 3500 
L 1159 2969 
Q 1341 3281 1617 3432 
Q 1894 3584 2278 3584 
Q 2916 3584 3314 3078 
Q 3713 2572 3713 1747 
Q 3713 922 3314 415 
Q 2916 -91 2278 -91 
Q 1894 -91 1617 61 
Q 1341 213 1159 525 
z
M 3116 1747 
Q 3116 2381 2855 2742 
Q 2594 3103 2138 3103 
Q 1681 3103 1420 2742 
Q 1159 2381 1159 1747 
Q 1159 1113 1420 752 
Q 1681 391 2138 391 
Q 2594 391 2855 752 
Q 3116 1113 3116 1747 
z
" transform="scale(0.015625)"/>
     </defs>
     <use xlink:href="#DejaVuSans-e"/>
     <use xlink:href="#DejaVuSans-3" transform="translate(83.796875 0)"/>
     <use xlink:href="#DejaVuSans-49" transform="translate(115.578125 0)"/>
     <use xlink:href="#DejaVuSans-52" transform="translate(150.78125 0)"/>
     <use xlink:href="#DejaVuSans-4f" transform="translate(211.96875 0)"/>
     <use xlink:href="#DejaVuSans-47" transform="translate(239.75 0)"/>
     <use xlink:href="#DejaVuSans-10" transform="translate(303.234375 0)"/>
     <use xlink:href="#DejaVuSans-45" transform="translate(339.3125 0)"/>
     <use xlink:href="#DejaVuSans-44" transform="translate(402.796875 0)"/>
     <use xlink:href="#DejaVuSans-46" transform="translate(464.078125 0)"/>
     <use xlink:href="#DejaVuSans-4e" transform="translate(519.0625 0)"/>
     <use xlink:href="#DejaVuSans-3" transform="translate(576.96875 0)"/>
     <use xlink:href="#DejaVuSans-52" transform="translate(608.75 0)"/>
     <use xlink:href="#DejaVuSans-45" transform="translate(669.9375 0)"/>
     <use xlink:href="#DejaVuSans-4d" transform="translate(733.421875 0)"/>
     <use xlink:href="#DejaVuSans-48" transform="translate(761.203125 0)"/>
     <use xlink:href="#DejaVuSans-46" transform="translate(822.734375 0)"/>
     <use xlink:href="#DejaVuSans-57" transform="translate(877.71875 0)"/>
     <use xlink:href="#DejaVuSans-3" transform="translate(916.921875 0)"/>
     <use xlink:href="#DejaVuSans-b" transform="translate(948.703125 0)"/>
     <use xlink:href="#DejaVuSans-51" transform="translate(987.71875 0)"/>
     <use xlink:href="#DejaVuSans-52" transform="translate(1051.09375 0)"/>
     <use xlink:href="#DejaVuSans-57" transform="translate(1112.28125 0)"/>
     <use xlink:href="#DejaVuSans-48" transform="translate(1151.484375 0)"/>
     <use xlink:href="#DejaVuSans-3" transform="translate(1213.015625 0)"/>
     <use xlink:href="#DejaVuSans-e" transform="translate(1244.796875 0)"/>
     <use xlink:href="#DejaVuSans-3" transform="translate(1328.59375 0)"/>
     <use xlink:href="#DejaVuSans-53" transform="translate(1360.375 0)"/>
     <use xlink:href="#DejaVuSans-55" transform="translate(1423.859375 0)"/>
     <use xlink:href="#DejaVuSans-52" transform="translate(1462.765625 0)"/>
     <use xlink:href="#DejaVuSans-57" transform="translate(1523.953125 0)"/>
     <use xlink:href="#DejaVuSans-52" transform="translate(1563.15625 0)"/>
     <use xlink:href="#DejaVuSans-46" transform="translate(1624.34375 0)"/>
     <use xlink:href="#DejaVuSans-52" transform="translate(1679.328125 0)"/>
     <use xlink:href="#DejaVuSans-4f" transform="translate(1740.515625 0)"/>
     <use xlink:href="#DejaVuSans-3" transform="translate(1768.296875 0)"/>
     <use xlink:href="#DejaVuSans-e" transform="translate(1800.078125 0)"/>
     <use xlink:href="#DejaVuSans-3" transform="translate(1883.875 0)"/>
     <use xlink:href="#DejaVuSans-56" transform="translate(1915.65625 0)"/>
     <use xlink:href="#DejaVuSans-57" transform="translate(1967.75 0)"/>
     <use xlink:href="#DejaVuSans-52" transform="translate(2006.953125 0)"/>
     <use xlink:href="#DejaVuSans-55" transform="translate(2068.140625 0)"/>
     <use xlink:href="#DejaVuSans-48" transform="translate(2107.046875 0)"/>
     <use xlink:href="#DejaVuSans-c" transform="translate(2168.578125 0)"/>
     <use xlink:href="#DejaVuSans-3" transform="translate(2207.59375 0)"/>
     <use xlink:href="#DejaVuSans-79" transform="translate(2239.375 0)"/>
     <use xlink:href="#DejaVuSans-3" transform="translate(2271.15625 0)"/>
     <use xlink:href="#DejaVuSans-28" transform="translate(2302.9375 0)"/>
     <use xlink:href="#DejaVuSans-3" transform="translate(2366.125 0)"/>
     <use xlink:href="#DejaVuSans-17" transform="translate(2397.90625 0)"/>
     <use xlink:href="#DejaVuSans-16" transform="translate(2461.53125 0)"/>
     <use xlink:href="#DejaVuSans-11" transform="translate(2525.15625 0)"/>
     <use xlink:href="#DejaVuSans-17" transform="translate(2556.9375 0)"/>
    </g>
   </g>
   <g id="text_19">
    <!-- 3k anchor -->
    <g style="fill: #777777" transform="translate(303.920997 62.441178) scale(0.1 -0.1)">
     <use xlink:href="#DejaVuSans-16"/>
     <use xlink:href="#DejaVuSans-4e" transform="translate(63.625 0)"/>
     <use xlink:href="#DejaVuSans-3" transform="translate(121.53125 0)"/>
     <use xlink:href="#DejaVuSans-44" transform="translate(153.3125 0)"/>
     <use xlink:href="#DejaVuSans-51" transform="translate(214.59375 0)"/>
     <use xlink:href="#DejaVuSans-46" transform="translate(277.96875 0)"/>
     <use xlink:href="#DejaVuSans-4b" transform="translate(332.953125 0)"/>
     <use xlink:href="#DejaVuSans-52" transform="translate(396.328125 0)"/>
     <use xlink:href="#DejaVuSans-55" transform="translate(457.515625 0)"/>
    </g>
   </g>
   <g id="text_20">
    <!-- 30 test questions · same harness/seeds/judge · no-study/cheatsheet/fold-back 1 rollout, knowledge-only 3 rollouts -->
    <g style="fill: #777777" transform="translate(41.198477 32.753058) scale(0.105 -0.105)">
     <defs>
      <path id="DejaVuSans-50" d="M 3328 2828 
Q 3544 3216 3844 3400 
Q 4144 3584 4550 3584 
Q 5097 3584 5394 3201 
Q 5691 2819 5691 2113 
L 5691 0 
L 5113 0 
L 5113 2094 
Q 5113 2597 4934 2840 
Q 4756 3084 4391 3084 
Q 3944 3084 3684 2787 
Q 3425 2491 3425 1978 
L 3425 0 
L 2847 0 
L 2847 2094 
Q 2847 2600 2669 2842 
Q 2491 3084 2119 3084 
Q 1678 3084 1418 2786 
Q 1159 2488 1159 1978 
L 1159 0 
L 581 0 
L 581 3500 
L 1159 3500 
L 1159 2956 
Q 1356 3278 1631 3431 
Q 1906 3584 2284 3584 
Q 2666 3584 2933 3390 
Q 3200 3197 3328 2828 
z
" transform="scale(0.015625)"/>
      <path id="DejaVuSans-f" d="M 750 794 
L 1409 794 
L 1409 256 
L 897 -744 
L 494 -744 
L 750 256 
L 750 794 
z
" transform="scale(0.015625)"/>
     </defs>
     <use xlink:href="#DejaVuSans-16"/>
     <use xlink:href="#DejaVuSans-13" transform="translate(63.625 0)"/>
     <use xlink:href="#DejaVuSans-3" transform="translate(127.25 0)"/>
     <use xlink:href="#DejaVuSans-57" transform="translate(159.03125 0)"/>
     <use xlink:href="#DejaVuSans-48" transform="translate(198.234375 0)"/>
     <use xlink:href="#DejaVuSans-56" transform="translate(259.765625 0)"/>
     <use xlink:href="#DejaVuSans-57" transform="translate(311.859375 0)"/>
     <use xlink:href="#DejaVuSans-3" transform="translate(351.0625 0)"/>
     <use xlink:href="#DejaVuSans-54" transform="translate(382.84375 0)"/>
     <use xlink:href="#DejaVuSans-58" transform="translate(446.328125 0)"/>
     <use xlink:href="#DejaVuSans-48" transform="translate(509.703125 0)"/>
     <use xlink:href="#DejaVuSans-56" transform="translate(571.234375 0)"/>
     <use xlink:href="#DejaVuSans-57" transform="translate(623.328125 0)"/>
     <use xlink:href="#DejaVuSans-4c" transform="translate(662.53125 0)"/>
     <use xlink:href="#DejaVuSans-52" transform="translate(690.3125 0)"/>
     <use xlink:href="#DejaVuSans-51" transform="translate(751.5 0)"/>
     <use xlink:href="#DejaVuSans-56" transform="translate(814.875 0)"/>
     <use xlink:href="#DejaVuSans-3" transform="translate(866.96875 0)"/>
     <use xlink:href="#DejaVuSans-79" transform="translate(898.75 0)"/>
     <use xlink:href="#DejaVuSans-3" transform="translate(930.53125 0)"/>
     <use xlink:href="#DejaVuSans-56" transform="translate(962.3125 0)"/>
     <use xlink:href="#DejaVuSans-44" transform="translate(1014.40625 0)"/>
     <use xlink:href="#DejaVuSans-50" transform="translate(1075.6875 0)"/>
     <use xlink:href="#DejaVuSans-48" transform="translate(1173.09375 0)"/>
     <use xlink:href="#DejaVuSans-3" transform="translate(1234.625 0)"/>
     <use xlink:href="#DejaVuSans-4b" transform="translate(1266.40625 0)"/>
     <use xlink:href="#DejaVuSans-44" transform="translate(1329.78125 0)"/>
     <use xlink:href="#DejaVuSans-55" transform="translate(1391.0625 0)"/>
     <use xlink:href="#DejaVuSans-51" transform="translate(1430.421875 0)"/>
     <use xlink:href="#DejaVuSans-48" transform="translate(1493.796875 0)"/>
     <use xlink:href="#DejaVuSans-56" transform="translate(1555.328125 0)"/>
     <use xlink:href="#DejaVuSans-56" transform="translate(1607.421875 0)"/>
     <use xlink:href="#DejaVuSans-12" transform="translate(1659.515625 0)"/>
     <use xlink:href="#DejaVuSans-56" transform="translate(1693.203125 0)"/>
     <use xlink:href="#DejaVuSans-48" transform="translate(1745.296875 0)"/>
     <use xlink:href="#DejaVuSans-48" transform="translate(1806.828125 0)"/>
     <use xlink:href="#DejaVuSans-47" transform="translate(1868.359375 0)"/>
     <use xlink:href="#DejaVuSans-56" transform="translate(1931.84375 0)"/>
     <use xlink:href="#DejaVuSans-12" transform="translate(1983.9375 0)"/>
     <use xlink:href="#DejaVuSans-4d" transform="translate(2017.625 0)"/>
     <use xlink:href="#DejaVuSans-58" transform="translate(2045.40625 0)"/>
     <use xlink:href="#DejaVuSans-47" transform="translate(2108.78125 0)"/>
     <use xlink:href="#DejaVuSans-4a" transform="translate(2172.265625 0)"/>
     <use xlink:href="#DejaVuSans-48" transform="translate(2235.75 0)"/>
     <use xlink:href="#DejaVuSans-3" transform="translate(2297.28125 0)"/>
     <use xlink:href="#DejaVuSans-79" transform="translate(2329.0625 0)"/>
     <use xlink:href="#DejaVuSans-3" transform="translate(2360.84375 0)"/>
     <use xlink:href="#DejaVuSans-51" transform="translate(2392.625 0)"/>
     <use xlink:href="#DejaVuSans-52" transform="translate(2456 0)"/>
     <use xlink:href="#DejaVuSans-10" transform="translate(2519.046875 0)"/>
     <use xlink:href="#DejaVuSans-56" transform="translate(2555.125 0)"/>
     <use xlink:href="#DejaVuSans-57" transform="translate(2607.21875 0)"/>
     <use xlink:href="#DejaVuSans-58" transform="translate(2646.421875 0)"/>
     <use xlink:href="#DejaVuSans-47" transform="translate(2709.796875 0)"/>
     <use xlink:href="#DejaVuSans-5c" transform="translate(2773.28125 0)"/>
     <use xlink:href="#DejaVuSans-12" transform="translate(2832.46875 0)"/>
     <use xlink:href="#DejaVuSans-46" transform="translate(2866.15625 0)"/>
     <use xlink:href="#DejaVuSans-4b" transform="translate(2921.140625 0)"/>
     <use xlink:href="#DejaVuSans-48" transform="translate(2984.515625 0)"/>
     <use xlink:href="#DejaVuSans-44" transform="translate(3046.046875 0)"/>
     <use xlink:href="#DejaVuSans-57" transform="translate(3107.328125 0)"/>
     <use xlink:href="#DejaVuSans-56" transform="translate(3146.53125 0)"/>
     <use xlink:href="#DejaVuSans-4b" transform="translate(3198.625 0)"/>
     <use xlink:href="#DejaVuSans-48" transform="translate(3262 0)"/>
     <use xlink:href="#DejaVuSans-48" transform="translate(3323.53125 0)"/>
     <use xlink:href="#DejaVuSans-57" transform="translate(3385.0625 0)"/>
     <use xlink:href="#DejaVuSans-12" transform="translate(3424.265625 0)"/>
     <use xlink:href="#DejaVuSans-49" transform="translate(3457.953125 0)"/>
     <use xlink:href="#DejaVuSans-52" transform="translate(3493.15625 0)"/>
     <use xlink:href="#DejaVuSans-4f" transform="translate(3554.34375 0)"/>
     <use xlink:href="#DejaVuSans-47" transform="translate(3582.125 0)"/>
     <use xlink:href="#DejaVuSans-10" transform="translate(3645.609375 0)"/>
     <use xlink:href="#DejaVuSans-45" transform="translate(3681.6875 0)"/>
     <use xlink:href="#DejaVuSans-44" transform="translate(3745.171875 0)"/>
     <use xlink:href="#DejaVuSans-46" transform="translate(3806.453125 0)"/>
     <use xlink:href="#DejaVuSans-4e" transform="translate(3861.4375 0)"/>
     <use xlink:href="#DejaVuSans-3" transform="translate(3919.34375 0)"/>
     <use xlink:href="#DejaVuSans-14" transform="translate(3951.125 0)"/>
     <use xlink:href="#DejaVuSans-3" transform="translate(4014.75 0)"/>
     <use xlink:href="#DejaVuSans-55" transform="translate(4046.53125 0)"/>
     <use xlink:href="#DejaVuSans-52" transform="translate(4085.4375 0)"/>
     <use xlink:href="#DejaVuSans-4f" transform="translate(4146.625 0)"/>
     <use xlink:href="#DejaVuSans-4f" transform="translate(4174.40625 0)"/>
     <use xlink:href="#DejaVuSans-52" transform="translate(4202.1875 0)"/>
     <use xlink:href="#DejaVuSans-58" transform="translate(4263.375 0)"/>
     <use xlink:href="#DejaVuSans-57" transform="translate(4326.75 0)"/>
     <use xlink:href="#DejaVuSans-f" transform="translate(4365.953125 0)"/>
     <use xlink:href="#DejaVuSans-3" transform="translate(4397.734375 0)"/>
     <use xlink:href="#DejaVuSans-4e" transform="translate(4429.515625 0)"/>
     <use xlink:href="#DejaVuSans-51" transform="translate(4487.421875 0)"/>
     <use xlink:href="#DejaVuSans-52" transform="translate(4550.796875 0)"/>
     <use xlink:href="#DejaVuSans-5a" transform="translate(4611.984375 0)"/>
     <use xlink:href="#DejaVuSans-4f" transform="translate(4693.765625 0)"/>
     <use xlink:href="#DejaVuSans-48" transform="translate(4721.546875 0)"/>
     <use xlink:href="#DejaVuSans-47" transform="translate(4783.078125 0)"/>
     <use xlink:href="#DejaVuSans-4a" transform="translate(4846.5625 0)"/>
     <use xlink:href="#DejaVuSans-48" transform="translate(4910.046875 0)"/>
     <use xlink:href="#DejaVuSans-10" transform="translate(4971.578125 0)"/>
     <use xlink:href="#DejaVuSans-52" transform="translate(5009.515625 0)"/>
     <use xlink:href="#DejaVuSans-51" transform="translate(5070.703125 0)"/>
     <use xlink:href="#DejaVuSans-4f" transform="translate(5134.078125 0)"/>
     <use xlink:href="#DejaVuSans-5c" transform="translate(5161.859375 0)"/>
     <use xlink:href="#DejaVuSans-3" transform="translate(5221.046875 0)"/>
     <use xlink:href="#DejaVuSans-16" transform="translate(5252.828125 0)"/>
     <use xlink:href="#DejaVuSans-3" transform="translate(5316.453125 0)"/>
     <use xlink:href="#DejaVuSans-55" transform="translate(5348.234375 0)"/>
     <use xlink:href="#DejaVuSans-52" transform="translate(5387.140625 0)"/>
     <use xlink:href="#DejaVuSans-4f" transform="translate(5448.328125 0)"/>
     <use xlink:href="#DejaVuSans-4f" transform="translate(5476.109375 0)"/>
     <use xlink:href="#DejaVuSans-52" transform="translate(5503.890625 0)"/>
     <use xlink:href="#DejaVuSans-58" transform="translate(5565.078125 0)"/>
     <use xlink:href="#DejaVuSans-57" transform="translate(5628.453125 0)"/>
     <use xlink:href="#DejaVuSans-56" transform="translate(5667.65625 0)"/>
    </g>
   </g>
   <g id="text_21">
    <!-- gpt-5.4-mini study-object ablation — GPT-5.4 paper judge -->
    <g style="fill: #1a1a1a" transform="translate(41.198477 18.977578) scale(0.155 -0.155)">
     <defs>
      <path id="DejaVuSans-af6" d="M 313 1978 
L 6088 1978 
L 6088 1528 
L 313 1528 
L 313 1978 
z
" transform="scale(0.015625)"/>
      <path id="DejaVuSans-2a" d="M 3809 666 
L 3809 1919 
L 2778 1919 
L 2778 2438 
L 4434 2438 
L 4434 434 
Q 4069 175 3628 42 
Q 3188 -91 2688 -91 
Q 1594 -91 976 548 
Q 359 1188 359 2328 
Q 359 3472 976 4111 
Q 1594 4750 2688 4750 
Q 3144 4750 3555 4637 
Q 3966 4525 4313 4306 
L 4313 3634 
Q 3963 3931 3569 4081 
Q 3175 4231 2741 4231 
Q 1884 4231 1454 3753 
Q 1025 3275 1025 2328 
Q 1025 1384 1454 906 
Q 1884 428 2741 428 
Q 3075 428 3337 486 
Q 3600 544 3809 666 
z
" transform="scale(0.015625)"/>
      <path id="DejaVuSans-33" d="M 1259 4147 
L 1259 2394 
L 2053 2394 
Q 2494 2394 2734 2622 
Q 2975 2850 2975 3272 
Q 2975 3691 2734 3919 
Q 2494 4147 2053 4147 
L 1259 4147 
z
M 628 4666 
L 2053 4666 
Q 2838 4666 3239 4311 
Q 3641 3956 3641 3272 
Q 3641 2581 3239 2228 
Q 2838 1875 2053 1875 
L 1259 1875 
L 1259 0 
L 628 0 
L 628 4666 
z
" transform="scale(0.015625)"/>
      <path id="DejaVuSans-37" d="M -19 4666 
L 3928 4666 
L 3928 4134 
L 2272 4134 
L 2272 0 
L 1638 0 
L 1638 4134 
L -19 4134 
L -19 4666 
z
" transform="scale(0.015625)"/>
     </defs>
     <use xlink:href="#DejaVuSans-4a"/>
     <use xlink:href="#DejaVuSans-53" transform="translate(63.484375 0)"/>
     <use xlink:href="#DejaVuSans-57" transform="translate(126.96875 0)"/>
     <use xlink:href="#DejaVuSans-10" transform="translate(166.171875 0)"/>
     <use xlink:href="#DejaVuSans-18" transform="translate(202.25 0)"/>
     <use xlink:href="#DejaVuSans-11" transform="translate(265.875 0)"/>
     <use xlink:href="#DejaVuSans-17" transform="translate(297.65625 0)"/>
     <use xlink:href="#DejaVuSans-10" transform="translate(361.28125 0)"/>
     <use xlink:href="#DejaVuSans-50" transform="translate(397.359375 0)"/>
     <use xlink:href="#DejaVuSans-4c" transform="translate(494.765625 0)"/>
     <use xlink:href="#DejaVuSans-51" transform="translate(522.546875 0)"/>
     <use xlink:href="#DejaVuSans-4c" transform="translate(585.921875 0)"/>
     <use xlink:href="#DejaVuSans-3" transform="translate(613.703125 0)"/>
     <use xlink:href="#DejaVuSans-56" transform="translate(645.484375 0)"/>
     <use xlink:href="#DejaVuSans-57" transform="translate(697.578125 0)"/>
     <use xlink:href="#DejaVuSans-58" transform="translate(736.78125 0)"/>
     <use xlink:href="#DejaVuSans-47" transform="translate(800.15625 0)"/>
     <use xlink:href="#DejaVuSans-5c" transform="translate(863.640625 0)"/>
     <use xlink:href="#DejaVuSans-10" transform="translate(921.078125 0)"/>
     <use xlink:href="#DejaVuSans-52" transform="translate(959.015625 0)"/>
     <use xlink:href="#DejaVuSans-45" transform="translate(1020.203125 0)"/>
     <use xlink:href="#DejaVuSans-4d" transform="translate(1083.6875 0)"/>
     <use xlink:href="#DejaVuSans-48" transform="translate(1111.46875 0)"/>
     <use xlink:href="#DejaVuSans-46" transform="translate(1173 0)"/>
     <use xlink:href="#DejaVuSans-57" transform="translate(1227.984375 0)"/>
     <use xlink:href="#DejaVuSans-3" transform="translate(1267.1875 0)"/>
     <use xlink:href="#DejaVuSans-44" transform="translate(1298.96875 0)"/>
     <use xlink:href="#DejaVuSans-45" transform="translate(1360.25 0)"/>
     <use xlink:href="#DejaVuSans-4f" transform="translate(1423.734375 0)"/>
     <use xlink:href="#DejaVuSans-44" transform="translate(1451.515625 0)"/>
     <use xlink:href="#DejaVuSans-57" transform="translate(1512.796875 0)"/>
     <use xlink:href="#DejaVuSans-4c" transform="translate(1552 0)"/>
     <use xlink:href="#DejaVuSans-52" transform="translate(1579.78125 0)"/>
     <use xlink:href="#DejaVuSans-51" transform="translate(1640.96875 0)"/>
     <use xlink:href="#DejaVuSans-3" transform="translate(1704.34375 0)"/>
     <use xlink:href="#DejaVuSans-af6" transform="translate(1736.125 0)"/>
     <use xlink:href="#DejaVuSans-3" transform="translate(1836.125 0)"/>
     <use xlink:href="#DejaVuSans-2a" transform="translate(1867.90625 0)"/>
     <use xlink:href="#DejaVuSans-33" transform="translate(1945.390625 0)"/>
     <use xlink:href="#DejaVuSans-37" transform="translate(2005.6875 0)"/>
     <use xlink:href="#DejaVuSans-10" transform="translate(2057.59375 0)"/>
     <use xlink:href="#DejaVuSans-18" transform="translate(2093.671875 0)"/>
     <use xlink:href="#DejaVuSans-11" transform="translate(2157.296875 0)"/>
     <use xlink:href="#DejaVuSans-17" transform="translate(2189.078125 0)"/>
     <use xlink:href="#DejaVuSans-3" transform="translate(2252.703125 0)"/>
     <use xlink:href="#DejaVuSans-53" transform="translate(2284.484375 0)"/>
     <use xlink:href="#DejaVuSans-44" transform="translate(2347.96875 0)"/>
     <use xlink:href="#DejaVuSans-53" transform="translate(2409.25 0)"/>
     <use xlink:href="#DejaVuSans-48" transform="translate(2472.734375 0)"/>
     <use xlink:href="#DejaVuSans-55" transform="translate(2534.265625 0)"/>
     <use xlink:href="#DejaVuSans-3" transform="translate(2575.375 0)"/>
     <use xlink:href="#DejaVuSans-4d" transform="translate(2607.15625 0)"/>
     <use xlink:href="#DejaVuSans-58" transform="translate(2634.9375 0)"/>
     <use xlink:href="#DejaVuSans-47" transform="translate(2698.3125 0)"/>
     <use xlink:href="#DejaVuSans-4a" transform="translate(2761.796875 0)"/>
     <use xlink:href="#DejaVuSans-48" transform="translate(2825.28125 0)"/>
    </g>
   </g>
  </g>
 </g>
 <defs>
  <clipPath id="p717c307524">
   <rect x="41.198477" y="44.977578" width="569.16" height="349.272"/>
  </clipPath>
 </defs>
</svg>
